PathFileType	4	(X/Y/Z)	/Users/itak/Documents/Research/Walk-IL/dataset/trc/00389_00012.trc
DataRate	CameraRate	NumFrames	NumMarkers	Units	OrigDataRate	OrigDataStartFrame	OrigNumFrames
100.000000	100.000000	4	53	mm	100.000000	380	608
Frame#	Time	RPSI			LPSI			L3			STRN			T10			C7			CLAV			RBAK			LBAK			LSHO			LUPA			LAEL			LAOL			LWTS			LWPS			LFRA			LIFD			LHPS			LHTS			RSHO			RUPA			RAEL			RAOL			RWTS			RWPS			RFRA			RIFD			RHTS			RHPS			RBHD			LFHD			RFHD			LBHD			LHIP			RHIP			RASI			LASI			LKNE			LTHI			LANK			LTIP			LTOE			LMT1			LMT5			LHEE			RKNE			RANK			RTIP			RTOE			RMT1			RMT5			RHEE			RTHI			
		X1	Y1	Z1	X2	Y2	Z2	X3	Y3	Z3	X4	Y4	Z4	X5	Y5	Z5	X6	Y6	Z6	X7	Y7	Z7	X8	Y8	Z8	X9	Y9	Z9	X10	Y10	Z10	X11	Y11	Z11	X12	Y12	Z12	X13	Y13	Z13	X14	Y14	Z14	X15	Y15	Z15	X16	Y16	Z16	X17	Y17	Z17	X18	Y18	Z18	X19	Y19	Z19	X20	Y20	Z20	X21	Y21	Z21	X22	Y22	Z22	X23	Y23	Z23	X24	Y24	Z24	X25	Y25	Z25	X26	Y26	Z26	X27	Y27	Z27	X28	Y28	Z28	X29	Y29	Z29	X30	Y30	Z30	X31	Y31	Z31	X32	Y32	Z32	X33	Y33	Z33	X34	Y34	Z34	X35	Y35	Z35	X36	Y36	Z36	X37	Y37	Z37	X38	Y38	Z38	X39	Y39	Z39	X40	Y40	Z40	X41	Y41	Z41	X42	Y42	Z42	X43	Y43	Z43	X44	Y44	Z44	X45	Y45	Z45	X46	Y46	Z46	X47	Y47	Z47	X48	Y48	Z48	X49	Y49	Z49	X50	Y50	Z50	X51	Y51	Z51	X52	Y52	Z52	X53	Y53	Z53	

381	3.8	-483.5649719238281	961.923095703125	48.43611145019531	-484.6766357421875	956.0618286132812	-84.77381896972656	-481.4132995605469	1032.040649414062	-21.28511428833008	-247.144287109375	1193.808715820312	-1.882577776908875	-491.0052795410156	1136.153564453125	-27.42433166503906	-458.2847900390625	1386.097290039062	-33.47142791748047	-303.0007019042969	1312.051025390625	-8.286355972290039	-504.2387390136719	1238.282958984375	25.96195793151855	-461.4606018066406	1350.080078125	-137.7704772949219	-369.0113830566406	1367.276123046875	-177.1069183349609	-383.4513854980469	1250.529296875	-248.7303466796875	-351.8049621582031	1056.249877929688	-275.3280944824219	-410.2375183105469	1030.664184570312	-219.3384552001953	-232.4083862304688	861.0200805664062	-231.6354827880859	-280.6395263671875	837.6502685546875	-293.4500732421875	-322.4796142578125	955.88427734375	-284.2615051269531	-196.9587249755859	686.4967041015625	-236.251953125	-250.2705688476562	757.7686157226562	-286.1101684570312	-196.5138397216797	770.8076782226562	-254.2013854980469	-423.3043518066406	1366.685424804688	129.6546783447266	-445.8614196777344	1300.004028320312	185.2610931396484	-432.4705810546875	1038.68310546875	225.9982452392578	-417.7803039550781	1026.047729492188	131.4338836669922	-283.0509338378906	843.2827758789062	257.6378173828125	-344.0033569335938	827.4005126953125	295.2853088378906	-407.6205139160156	978.0542602539062	251.2122497558594	-264.6210021972656	671.7146606445312	275.3599548339844	-263.0707092285156	743.2274169921875	292.0969543457031	-329.6936950683594	739.7579956054688	303.5703125	-434.4007873535156	1565.61474609375	68.89510345458984	-283.562744140625	1590.746704101562	-57.43682098388672	-304.0669250488281	1586.68798828125	63.78800582885742	-425.3601684570312	1567.00830078125	-93.20960998535156	-370.8641357421875	928.0115966796875	-186.9524383544922	-401.0126647949219	940.9784545898438	163.8265838623047	-271.3484802246094	950.0693969726562	107.4811859130859	-284.1645202636719	932.6708374023438	-154.6923980712891	-398.1535339355469	441.8890075683594	-146.3980865478516	-381.5551452636719	583.7042846679688	-165.5781097412109	-758.0576171875	157.112548828125	-131.799560546875	-580.5140380859375	287.57275390625	-150.4402923583984	-612.525390625	37.3747673034668	-39.0102653503418	-669.1550903320312	80.17665100097656	-21.32217788696289	-670.7744750976562	67.26032257080078	-127.4056625366211	-789.9912719726562	190.3209381103516	-81.32936096191406	-211.1866760253906	478.4552917480469	113.3132629394531	-191.5322875976562	54.59827041625977	75.60282897949219	-176.8616180419922	355.6815795898438	93.39359283447266	-19.62704277038574	60.42538833618164	2.710761308670044	-94.34355163574219	52.33340454101562	-24.78479766845703	-105.7677536010742	52.615966796875	74.69609832763672	-266.3914489746094	34.82667922973633	25.31381225585938	-275.1734008789062	728.209228515625	156.3923034667969	
382	3.81	-494.7947082519531	960.4964599609375	48.24732208251953	-496.4306030273438	955.2080688476562	-84.93299865722656	-492.9265441894531	1031.435424804688	-21.81366920471191	-257.765869140625	1191.970947265625	-3.145964860916138	-501.5290222167969	1135.423461914062	-28.07451057434082	-468.1376342773438	1385.16064453125	-34.54768753051758	-313.1760864257812	1310.413696289062	-9.484195709228516	-514.6660766601562	1237.565063476562	24.99628448486328	-471.6018676757812	1349.18994140625	-138.9082946777344	-379.0852661132812	1365.858276367188	-178.2245788574219	-393.4443359375	1249.126586914062	-249.7847290039062	-361.3562316894531	1054.890747070312	-276.2222595214844	-420.1512756347656	1029.22998046875	-220.6714630126953	-241.6785583496094	860.14697265625	-232.0120086669922	-289.5879211425781	836.5494384765625	-294.0486755371094	-331.8079833984375	954.6187133789062	-285.0462036132812	-205.5440673828125	685.7935791015625	-236.4784545898438	-258.8080749511719	756.8148803710938	-286.6009826660156	-205.2853240966797	770.12744140625	-254.4101257324219	-433.0400390625	1365.533081054688	128.5841064453125	-455.7921447753906	1298.926147460938	184.1934356689453	-443.0645446777344	1037.53173828125	224.6695556640625	-428.4241333007812	1024.903442382812	130.1976013183594	-293.8525390625	841.923095703125	256.6690063476562	-355.0897216796875	825.9697265625	293.9542541503906	-418.2999267578125	976.820068359375	249.9373779296875	-275.7160034179688	670.2846069335938	273.9468383789062	-274.260986328125	741.7459716796875	290.8904724121094	-340.8887634277344	738.2498779296875	302.0240783691406	-444.7075500488281	1563.86865234375	67.93608093261719	-293.5447998046875	1589.770629882812	-57.83427047729492	-314.373291015625	1585.332153320312	63.30821990966797	-435.14697265625	1565.748901367188	-94.12126922607422	-382.9764709472656	926.900390625	-187.94189453125	-411.7137145996094	939.5266723632812	163.2329711914062	-282.3656005859375	948.6464233398438	106.1341247558594	-296.3913879394531	931.1156616210938	-155.9206695556641	-417.3349304199219	441.5305786132812	-144.1953582763672	-398.9097290039062	583.2086791992188	-164.5841217041016	-770.9633178710938	147.7578430175781	-128.5534973144531	-596.5446166992188	283.1411743164062	-147.8496246337891	-620.5394897460938	36.9509162902832	-35.87686538696289	-678.6943969726562	75.10570526123047	-18.2762622833252	-680.1917724609375	62.25410461425781	-124.3727264404297	-803.8023681640625	180.5559997558594	-78.16561126708984	-218.5208587646484	478.6851501464844	112.703498840332	-191.8026580810547	54.71699523925781	75.39848327636719	-182.5434417724609	356.4823303222656	92.92965698242188	-20.11240386962891	62.83909225463867	1.535998225212097	-95.20811462402344	54.1641845703125	-25.46826171875	-105.6499557495117	53.31846237182617	73.84811401367188	-266.7081909179688	33.90744018554688	25.24727821350098	-284.8483276367188	727.83837890625	155.4347381591797	
383	3.82	-506.3098449707031	959.0330200195312	48.03574371337891	-508.4997863769531	954.2147827148438	-85.09808349609375	-504.796142578125	1030.957397460938	-22.22941780090332	-268.5195007324219	1190.062866210938	-4.561666965484619	-512.3055419921875	1134.832275390625	-28.76645088195801	-477.9881896972656	1384.295166015625	-35.62598037719727	-323.4030456542969	1308.738647460938	-10.80076026916504	-525.195068359375	1236.980590820312	24.11724281311035	-481.8343505859375	1348.369262695312	-140.0373229980469	-389.2712707519531	1364.444091796875	-179.4198608398438	-403.6969604492188	1247.709716796875	-250.8756713867188	-371.2332153320312	1053.496704101562	-277.1064453125	-430.3671264648438	1027.800415039062	-221.9590606689453	-251.2354125976562	859.286865234375	-232.3742370605469	-298.8305969238281	835.4457397460938	-294.6337585449219	-341.4524536132812	953.330810546875	-285.8055419921875	-214.3258972167969	685.1173706054688	-236.6964263916016	-267.5987243652344	755.8757934570312	-287.0814819335938	-214.2953491210938	769.4863891601562	-254.6016693115234	-442.6596069335938	1364.442138671875	127.4886245727539	-465.564453125	1297.945190429688	183.1605377197266	-453.5407409667969	1036.494873046875	223.5221099853516	-439.3208312988281	1023.825500488281	129.0781860351562	-304.6112060546875	840.5950317382812	255.4738922119141	-365.998291015625	824.626953125	292.5915222167969	-428.8559265136719	975.6904296875	248.7318878173828	-286.7804565429688	668.8937377929688	272.3076782226562	-285.3373718261719	740.29736328125	289.4271850585938	-351.9218139648438	736.8256225585938	300.4389953613281	-454.93505859375	1562.098999023438	66.95838928222656	-303.5098266601562	1588.814819335938	-58.29324340820312	-324.6109924316406	1583.995483398438	62.76914978027344	-444.9205017089844	1564.472778320312	-95.05359649658203	-396.3506774902344	926.1402587890625	-189.2408905029297	-422.653564453125	938.1129760742188	162.6149749755859	-293.6286315917969	947.2442016601562	104.7344436645508	-308.9242248535156	929.5476684570312	-157.2036285400391	-435.9634094238281	441.2557678222656	-142.4188842773438	-416.1268920898438	582.7581787109375	-163.8655242919922	-782.53955078125	138.0504455566406	-125.2422561645508	-611.7030029296875	278.5939636230469	-145.4891967773438	-626.0701904296875	36.91358947753906	-33.61021041870117	-686.130615234375	70.30570983886719	-15.70096302032471	-687.77685546875	57.75115966796875	-121.7916717529297	-816.340576171875	170.0789184570312	-74.74272918701172	-226.4806060791016	478.80859375	112.2879409790039	-192.2245330810547	54.89681625366211	75.20023345947266	-188.7693634033203	357.2425537109375	92.64004516601562	-20.82452011108398	65.84402465820312	0.4393012821674347	-96.23051452636719	56.38030624389648	-26.07357978820801	-105.715934753418	54.31446075439453	73.05487060546875	-267.0623779296875	32.93025207519531	25.27220916748047	-294.9480590820312	727.4697875976562	154.5527191162109	
384	3.83	-518.0969848632812	957.5540161132812	47.8204345703125	-520.8750610351562	953.0936279296875	-85.25125885009766	-516.9476318359375	1030.605346679688	-22.50433540344238	-279.4003601074219	1188.09423828125	-6.118381023406982	-523.36328125	1134.369018554688	-29.52590560913086	-487.8353881835938	1383.504760742188	-36.71428298950195	-333.6788024902344	1307.035766601562	-12.23028469085693	-535.8297119140625	1236.523681640625	23.29836273193359	-492.1466369628906	1347.614868164062	-141.1662139892578	-399.5492248535156	1363.041015625	-180.6936187744141	-414.1983947753906	1246.283935546875	-252.0067749023438	-381.4552001953125	1052.06689453125	-277.993408203125	-440.9015197753906	1026.380615234375	-223.2008819580078	-261.098388671875	858.4420166015625	-232.73388671875	-308.3764343261719	834.3444213867188	-295.2070922851562	-351.4336547851562	952.0215454101562	-286.5487060546875	-223.3216094970703	684.4715576171875	-236.9116668701172	-276.6588439941406	754.951171875	-287.551025390625	-223.5594635009766	768.8778686523438	-254.7846069335938	-452.1797790527344	1363.4130859375	126.3619537353516	-475.1929016113281	1297.052734375	182.1537475585938	-463.8934936523438	1035.567504882812	222.5616149902344	-450.4643859863281	1022.809265136719	128.0909881591797	-315.3219299316406	839.2947387695312	254.0534515380859	-376.7119140625	823.3771362304688	291.2127075195312	-439.2773132324219	974.6648559570312	247.6021270751953	-297.8027038574219	667.5442504882812	270.4737243652344	-296.2809448242188	738.8824462890625	287.7238159179688	-362.7952270507812	735.4970703125	298.8393859863281	-465.0880432128906	1560.317993164062	65.96157836914062	-313.4521484375	1587.890258789062	-58.81675338745117	-334.7846374511719	1582.680541992188	62.17290115356445	-454.6796264648438	1563.193969726562	-96.00510406494141	-411.1609497070312	925.8409423828125	-190.8577423095703	-433.818115234375	936.7596435546875	161.9834136962891	-305.1189880371094	945.8653564453125	103.2897109985352	-321.7437438964844	927.9755249023438	-158.5333404541016	-453.9086303710938	441.0221862792969	-141.2410430908203	-433.0693664550781	582.3380737304688	-163.5195617675781	-792.86181640625	128.4336547851562	-121.9835815429688	-626.0003051757812	274.1044616699219	-143.4644012451172	-629.6025390625	37.13356018066406	-32.16428756713867	-691.8450927734375	66.01839447021484	-13.57615375518799	-693.8724365234375	53.97534561157227	-119.6521911621094	-827.650634765625	159.3287658691406	-71.19902801513672	-235.10888671875	478.8081359863281	112.0973663330078	-192.8296813964844	55.15415573120117	75.04118347167969	-195.5899658203125	357.9429321289062	92.57049560546875	-21.81341934204102	69.49327850341797	-0.4629678130149841	-97.42453765869141	59.0189323425293	-26.5289134979248	-106.0489501953125	55.67597961425781	72.41001129150391	-267.4420471191406	31.88083839416504	25.37660598754883	-305.4575805664062	727.113037109375	153.7639770507812	
